<mxfile host="app.diagrams.net" agent="Mozilla/5.0 (Windows NT 10.0; Win64; x64) AppleWebKit/537.36 (KHTML, like Gecko) Chrome/123.0.0.0 Safari/537.36 OPR/109.0.0.0" version="24.7.7">
  <diagram name="Page-1" id="ekWttA2EyP192pHgJUzW">
    <mxGraphModel dx="1682" dy="2072" grid="1" gridSize="10" guides="1" tooltips="1" connect="1" arrows="1" fold="1" page="1" pageScale="1" pageWidth="827" pageHeight="1169" math="0" shadow="0">
      <root>
        <mxCell id="0" />
        <mxCell id="1" parent="0" />
        <mxCell id="myKySlIPXiOMNn1PHDgH-1" value="&lt;div&gt;Compétition&lt;/div&gt;&lt;div&gt;&lt;br&gt;&lt;/div&gt;&lt;div&gt;&lt;br&gt;&lt;/div&gt;&lt;div&gt;ID&lt;span style=&quot;background-color: initial;&quot;&gt;Compétition&lt;/span&gt;&lt;/div&gt;&lt;div&gt;&lt;span style=&quot;background-color: initial;&quot;&gt;Ville&lt;/span&gt;&lt;br&gt;&lt;/div&gt;&lt;div&gt;Libellé&lt;/div&gt;&lt;div&gt;#Date&lt;/div&gt;&lt;div&gt;&lt;br&gt;&lt;/div&gt;" style="rounded=1;whiteSpace=wrap;html=1;" parent="1" vertex="1">
          <mxGeometry x="320" y="390" width="160" height="150" as="geometry" />
        </mxCell>
        <mxCell id="myKySlIPXiOMNn1PHDgH-2" value="" style="endArrow=none;html=1;rounded=0;entryX=1.019;entryY=0.3;entryDx=0;entryDy=0;entryPerimeter=0;exitX=0.002;exitY=0.315;exitDx=0;exitDy=0;exitPerimeter=0;" parent="1" source="myKySlIPXiOMNn1PHDgH-1" target="myKySlIPXiOMNn1PHDgH-1" edge="1">
          <mxGeometry width="50" height="50" relative="1" as="geometry">
            <mxPoint x="250" y="55" as="sourcePoint" />
            <mxPoint x="420" y="56" as="targetPoint" />
          </mxGeometry>
        </mxCell>
        <mxCell id="myKySlIPXiOMNn1PHDgH-3" value="&lt;div&gt;Epreuve&lt;/div&gt;&lt;div&gt;&lt;br&gt;&lt;/div&gt;&lt;div&gt;&lt;div&gt;&lt;u&gt;IDEpreuve&lt;/u&gt;&lt;/div&gt;&lt;div&gt;Type&lt;/div&gt;&lt;/div&gt;&lt;div&gt;Distance&lt;/div&gt;&lt;div&gt;Conditions&lt;/div&gt;" style="rounded=1;whiteSpace=wrap;html=1;" parent="1" vertex="1">
          <mxGeometry x="790" y="400" width="160" height="120" as="geometry" />
        </mxCell>
        <mxCell id="myKySlIPXiOMNn1PHDgH-4" value="" style="endArrow=none;html=1;rounded=0;exitX=0.006;exitY=0.392;exitDx=0;exitDy=0;entryX=1.025;entryY=0.4;entryDx=0;entryDy=0;exitPerimeter=0;entryPerimeter=0;" parent="1" source="myKySlIPXiOMNn1PHDgH-3" target="myKySlIPXiOMNn1PHDgH-3" edge="1">
          <mxGeometry width="50" height="50" relative="1" as="geometry">
            <mxPoint x="810" y="470" as="sourcePoint" />
            <mxPoint x="860" y="420" as="targetPoint" />
          </mxGeometry>
        </mxCell>
        <mxCell id="myKySlIPXiOMNn1PHDgH-6" value="&lt;div&gt;Participant&lt;/div&gt;&lt;div&gt;&lt;br&gt;&lt;/div&gt;&lt;div&gt;&lt;br&gt;&lt;/div&gt;&lt;div&gt;&lt;u&gt;IDParticipant&lt;/u&gt;&lt;/div&gt;&lt;div&gt;Nom&lt;/div&gt;&lt;div&gt;Prénom&lt;/div&gt;&lt;div&gt;Fax&lt;/div&gt;&lt;div&gt;Téléphone&lt;/div&gt;" style="rounded=1;whiteSpace=wrap;html=1;" parent="1" vertex="1">
          <mxGeometry x="330" y="90" width="160" height="130" as="geometry" />
        </mxCell>
        <mxCell id="myKySlIPXiOMNn1PHDgH-7" value="" style="endArrow=none;html=1;rounded=0;exitX=0;exitY=0.25;exitDx=0;exitDy=0;entryX=1;entryY=0.25;entryDx=0;entryDy=0;elbow=vertical;" parent="1" source="myKySlIPXiOMNn1PHDgH-6" target="myKySlIPXiOMNn1PHDgH-6" edge="1">
          <mxGeometry width="50" height="50" relative="1" as="geometry">
            <mxPoint x="550" y="680" as="sourcePoint" />
            <mxPoint x="600" y="630" as="targetPoint" />
          </mxGeometry>
        </mxCell>
        <mxCell id="myKySlIPXiOMNn1PHDgH-9" value="&lt;div&gt;Date&lt;/div&gt;&lt;div&gt;&lt;br&gt;&lt;/div&gt;&lt;div&gt;&lt;u&gt;DATE&lt;/u&gt;&lt;/div&gt;" style="rounded=1;whiteSpace=wrap;html=1;" parent="1" vertex="1">
          <mxGeometry x="80" y="420" width="160" height="100" as="geometry" />
        </mxCell>
        <mxCell id="myKySlIPXiOMNn1PHDgH-10" value="" style="endArrow=none;html=1;rounded=0;exitX=0;exitY=0.44;exitDx=0;exitDy=0;entryX=1;entryY=0.43;entryDx=0;entryDy=0;elbow=vertical;exitPerimeter=0;entryPerimeter=0;" parent="1" source="myKySlIPXiOMNn1PHDgH-9" target="myKySlIPXiOMNn1PHDgH-9" edge="1">
          <mxGeometry width="50" height="50" relative="1" as="geometry">
            <mxPoint x="490" y="810" as="sourcePoint" />
            <mxPoint x="540" y="760" as="targetPoint" />
            <Array as="points" />
          </mxGeometry>
        </mxCell>
        <mxCell id="myKySlIPXiOMNn1PHDgH-13" value="&lt;div&gt;Correspond&lt;br&gt;&lt;/div&gt;&lt;div&gt;&lt;br&gt;&lt;/div&gt;&lt;div&gt;&lt;br&gt;&lt;/div&gt;&lt;div&gt;#IDLicensié&lt;/div&gt;&lt;div&gt;&lt;u&gt;#&lt;/u&gt;IDParticipant&lt;br&gt;&lt;/div&gt;&lt;div&gt;&lt;br&gt;&lt;/div&gt;" style="rounded=1;whiteSpace=wrap;html=1;" parent="1" vertex="1">
          <mxGeometry x="480" y="-50" width="160" height="130" as="geometry" />
        </mxCell>
        <mxCell id="myKySlIPXiOMNn1PHDgH-14" value="" style="endArrow=none;html=1;rounded=0;exitX=0;exitY=0.5;exitDx=0;exitDy=0;entryX=1;entryY=0.5;entryDx=0;entryDy=0;elbow=vertical;" parent="1" source="myKySlIPXiOMNn1PHDgH-13" target="myKySlIPXiOMNn1PHDgH-13" edge="1">
          <mxGeometry width="50" height="50" relative="1" as="geometry">
            <mxPoint x="673" y="550" as="sourcePoint" />
            <mxPoint x="723" y="500" as="targetPoint" />
            <Array as="points" />
          </mxGeometry>
        </mxCell>
        <mxCell id="V3TeK3t17WBnDZJ4J2q1-4" value="&lt;div&gt;est&lt;br&gt;&lt;/div&gt;&lt;div&gt;&lt;br&gt;&lt;/div&gt;&lt;div&gt;&lt;br&gt;&lt;/div&gt;&lt;div&gt;#IDLicencié&lt;/div&gt;&lt;div&gt;&lt;u&gt;#&lt;/u&gt;IDParticipant&lt;br&gt;&lt;/div&gt;&lt;div&gt;&lt;br&gt;&lt;/div&gt;" style="rounded=1;whiteSpace=wrap;html=1;" vertex="1" parent="1">
          <mxGeometry x="230" y="-50" width="160" height="130" as="geometry" />
        </mxCell>
        <mxCell id="V3TeK3t17WBnDZJ4J2q1-5" value="" style="endArrow=none;html=1;rounded=0;exitX=0;exitY=0.5;exitDx=0;exitDy=0;entryX=1;entryY=0.5;entryDx=0;entryDy=0;elbow=vertical;" edge="1" parent="1" source="V3TeK3t17WBnDZJ4J2q1-4" target="V3TeK3t17WBnDZJ4J2q1-4">
          <mxGeometry width="50" height="50" relative="1" as="geometry">
            <mxPoint x="976" y="602.5" as="sourcePoint" />
            <mxPoint x="1026" y="552.5" as="targetPoint" />
          </mxGeometry>
        </mxCell>
        <mxCell id="V3TeK3t17WBnDZJ4J2q1-6" value="&lt;div&gt;Participe&lt;br&gt;&lt;/div&gt;&lt;div&gt;&lt;br&gt;&lt;/div&gt;&lt;div&gt;&lt;br&gt;&lt;/div&gt;&lt;div&gt;&lt;br&gt;&lt;/div&gt;&lt;div&gt;#IDEpreuve&lt;/div&gt;&lt;div&gt;&lt;u&gt;#&lt;/u&gt;IDCompétition&lt;br&gt;&lt;/div&gt;&lt;div&gt;&lt;br&gt;&lt;/div&gt;" style="rounded=1;whiteSpace=wrap;html=1;" vertex="1" parent="1">
          <mxGeometry x="550" y="400" width="160" height="130" as="geometry" />
        </mxCell>
        <mxCell id="V3TeK3t17WBnDZJ4J2q1-7" value="" style="endArrow=none;html=1;rounded=0;exitX=0;exitY=0.25;exitDx=0;exitDy=0;entryX=1;entryY=0.25;entryDx=0;entryDy=0;" edge="1" parent="1" source="V3TeK3t17WBnDZJ4J2q1-6" target="V3TeK3t17WBnDZJ4J2q1-6">
          <mxGeometry width="50" height="50" relative="1" as="geometry">
            <mxPoint x="691" y="327" as="sourcePoint" />
            <mxPoint x="854" y="328" as="targetPoint" />
          </mxGeometry>
        </mxCell>
        <mxCell id="V3TeK3t17WBnDZJ4J2q1-10" value="&lt;div&gt;Concourt&lt;/div&gt;&lt;div&gt;&lt;br&gt;&lt;/div&gt;&lt;div&gt;&lt;br&gt;&lt;/div&gt;&lt;div&gt;&lt;br&gt;&lt;/div&gt;&lt;div&gt;#IDParticipant&lt;/div&gt;&lt;div&gt;&lt;u&gt;#&lt;/u&gt;IDParticipant&lt;br&gt;&lt;/div&gt;&lt;div&gt;&lt;br&gt;&lt;/div&gt;" style="rounded=1;whiteSpace=wrap;html=1;" vertex="1" parent="1">
          <mxGeometry x="330" y="240" width="160" height="130" as="geometry" />
        </mxCell>
        <mxCell id="V3TeK3t17WBnDZJ4J2q1-11" value="" style="endArrow=none;html=1;rounded=0;exitX=0;exitY=0.5;exitDx=0;exitDy=0;entryX=1;entryY=0.5;entryDx=0;entryDy=0;elbow=vertical;" edge="1" parent="1" source="V3TeK3t17WBnDZJ4J2q1-10" target="V3TeK3t17WBnDZJ4J2q1-10">
          <mxGeometry width="50" height="50" relative="1" as="geometry">
            <mxPoint x="693" y="760" as="sourcePoint" />
            <mxPoint x="743" y="710" as="targetPoint" />
            <Array as="points" />
          </mxGeometry>
        </mxCell>
        <mxCell id="V3TeK3t17WBnDZJ4J2q1-13" value="&lt;div&gt;Licencié&lt;/div&gt;&lt;div&gt;&lt;br&gt;&lt;/div&gt;&lt;div&gt;&lt;div&gt;&lt;u&gt;IDLicencié&lt;/u&gt;&lt;/div&gt;&lt;div&gt;Club&lt;/div&gt;&lt;/div&gt;" style="rounded=1;whiteSpace=wrap;html=1;" vertex="1" parent="1">
          <mxGeometry x="540" y="-200" width="160" height="120" as="geometry" />
        </mxCell>
        <mxCell id="V3TeK3t17WBnDZJ4J2q1-14" value="" style="endArrow=none;html=1;rounded=0;exitX=0.006;exitY=0.392;exitDx=0;exitDy=0;entryX=1.025;entryY=0.4;entryDx=0;entryDy=0;exitPerimeter=0;entryPerimeter=0;elbow=vertical;" edge="1" parent="1" source="V3TeK3t17WBnDZJ4J2q1-13" target="V3TeK3t17WBnDZJ4J2q1-13">
          <mxGeometry width="50" height="50" relative="1" as="geometry">
            <mxPoint x="710" y="230" as="sourcePoint" />
            <mxPoint x="760" y="180" as="targetPoint" />
          </mxGeometry>
        </mxCell>
        <mxCell id="V3TeK3t17WBnDZJ4J2q1-16" value="&lt;div&gt;Amateur&lt;/div&gt;&lt;div&gt;&lt;br&gt;&lt;/div&gt;&lt;div&gt;&lt;div&gt;&lt;u&gt;IDAmateur&lt;/u&gt;&lt;/div&gt;&lt;div&gt;Certificat_Médical&lt;/div&gt;&lt;/div&gt;" style="rounded=1;whiteSpace=wrap;html=1;" vertex="1" parent="1">
          <mxGeometry x="220" y="-210" width="160" height="120" as="geometry" />
        </mxCell>
        <mxCell id="V3TeK3t17WBnDZJ4J2q1-17" value="" style="endArrow=none;html=1;rounded=0;exitX=0.006;exitY=0.392;exitDx=0;exitDy=0;entryX=1.025;entryY=0.4;entryDx=0;entryDy=0;exitPerimeter=0;entryPerimeter=0;elbow=horizontal;" edge="1" parent="1" source="V3TeK3t17WBnDZJ4J2q1-16" target="V3TeK3t17WBnDZJ4J2q1-16">
          <mxGeometry width="50" height="50" relative="1" as="geometry">
            <mxPoint x="310" y="210" as="sourcePoint" />
            <mxPoint x="360" y="160" as="targetPoint" />
          </mxGeometry>
        </mxCell>
      </root>
    </mxGraphModel>
  </diagram>
</mxfile>
